<?xml version="1.0" standalone="no"?>
<!DOCTYPE svg PUBLIC "-//W3C//DTD SVG 20010904//EN"
 "http://www.w3.org/TR/2001/REC-SVG-20010904/DTD/svg10.dtd">
<svg version="1.0" xmlns="http://www.w3.org/2000/svg"
 width="1280.000000pt" height="958.000000pt" viewBox="0 0 1280.000000 958.000000"
 preserveAspectRatio="xMidYMid meet">

<g transform="translate(0.000000,958.000000) scale(0.100000,-0.100000)"
fill="#000000" stroke="none">
<path d="M4274 9566 c-10 -27 -82 -66 -120 -66 -76 0 -108 -18 -148 -82 l-37
-60 20 -22 c12 -12 21 -25 21 -29 0 -4 -18 -18 -40 -32 -45 -28 -73 -74 -68
-113 2 -21 -5 -32 -40 -56 l-43 -30 -46 16 -46 17 -68 -52 c-88 -67 -95 -89
-43 -134 43 -36 45 -32 -31 -78 -22 -13 -55 -25 -74 -27 -29 -3 -35 1 -50 31
-9 19 -26 40 -38 48 -20 14 -24 12 -52 -27 -17 -23 -54 -60 -83 -82 -41 -30
-55 -48 -65 -82 -12 -41 -16 -45 -62 -56 -27 -6 -52 -18 -55 -26 -8 -20 -70
-15 -73 6 -9 75 -16 92 -38 102 -30 14 -51 -1 -60 -43 -8 -35 -9 -35 -35 -9
-24 24 -51 20 -121 -15 -45 -22 -46 -22 -80 -4 -59 31 -75 26 -94 -31 -13 -41
-24 -54 -54 -69 -20 -11 -43 -31 -50 -45 -8 -14 -31 -37 -51 -51 -20 -14 -42
-37 -48 -50 -6 -13 -22 -31 -36 -40 -21 -14 -24 -20 -15 -37 17 -32 3 -86 -24
-90 -19 -3 -22 -8 -19 -38 3 -39 -15 -80 -35 -80 -7 0 -17 -10 -22 -23 -11
-29 -74 -85 -104 -93 -21 -5 -87 -83 -87 -102 0 -15 -84 -86 -131 -111 -84
-45 -88 -91 -18 -206 50 -81 51 -85 35 -107 -9 -13 -23 -34 -33 -48 -9 -14
-28 -37 -41 -51 -13 -15 -26 -45 -29 -67 -3 -23 -14 -49 -24 -58 -11 -9 -19
-23 -19 -29 0 -7 -7 -15 -14 -18 -8 -3 -23 -21 -32 -39 -9 -18 -42 -56 -73
-84 -42 -38 -55 -58 -56 -79 0 -25 -7 -31 -68 -56 -78 -32 -210 -53 -277 -45
-25 4 -102 27 -172 52 l-127 46 -49 -38 c-45 -36 -50 -44 -56 -91 -7 -57 -1
-82 25 -100 9 -7 20 -28 23 -47 5 -28 14 -37 46 -50 31 -12 44 -25 56 -56 9
-22 33 -53 53 -69 20 -16 42 -46 50 -67 17 -48 78 -129 107 -143 12 -5 33 -25
46 -43 31 -42 72 -144 63 -158 -3 -6 3 -25 14 -44 17 -27 21 -50 21 -125 0
-88 1 -94 34 -143 36 -52 79 -88 107 -88 9 0 22 -7 30 -16 9 -11 22 -14 41
-10 36 7 45 -14 63 -139 7 -49 14 -97 16 -105 2 -9 -2 -14 -10 -12 -7 2 -21
-3 -30 -11 -24 -20 -68 -20 -76 1 -6 16 -7 16 -21 -2 -18 -25 -18 -45 0 -65
12 -13 13 -26 5 -59 -8 -35 -5 -57 11 -111 27 -92 25 -126 -11 -223 -23 -64
-29 -92 -24 -125 4 -25 0 -68 -9 -105 -19 -80 -16 -167 7 -180 11 -6 17 -22
17 -43 0 -24 6 -38 19 -45 11 -5 29 -25 40 -44 17 -27 20 -43 15 -75 -4 -27
-1 -56 9 -84 37 -101 49 -161 42 -215 -6 -52 -6 -55 26 -82 29 -24 32 -30 20
-44 -7 -8 -26 -64 -42 -123 -33 -124 -92 -244 -161 -326 -44 -54 -48 -63 -48
-112 0 -29 -8 -72 -19 -96 -10 -24 -21 -56 -25 -70 -5 -25 -3 -27 42 -38 26
-7 63 -23 82 -36 19 -13 54 -29 78 -36 23 -7 42 -18 42 -26 0 -7 4 -13 9 -13
6 0 6 -12 -1 -31 -13 -39 -2 -125 21 -158 10 -14 21 -43 24 -63 5 -36 4 -39
-39 -64 -55 -32 -82 -65 -90 -113 -10 -53 -30 -87 -70 -118 -26 -20 -50 -56
-84 -127 l-47 -100 24 -110 c13 -61 35 -146 49 -188 23 -70 33 -85 100 -152
41 -40 74 -78 74 -84 0 -18 122 -132 141 -132 23 0 34 -32 14 -42 -8 -5 -24
-19 -35 -31 -19 -19 -20 -30 -14 -122 6 -95 5 -101 -16 -120 -17 -16 -33 -19
-81 -17 -37 2 -59 -1 -59 -7 0 -6 -6 -11 -13 -11 -7 0 -20 -9 -30 -20 -9 -11
-24 -20 -32 -20 -8 0 -15 -5 -15 -10 0 -6 -8 -13 -18 -17 -9 -3 -33 -22 -52
-42 -19 -20 -53 -50 -75 -67 l-40 -31 0 -99 c-1 -156 -37 -206 -150 -209 -27
-1 -66 -10 -87 -20 -34 -17 -39 -17 -85 -2 -33 11 -76 15 -132 13 l-84 -3 -16
-39 c-44 -109 -86 -148 -117 -107 -12 17 -15 17 -58 -5 -26 -12 -56 -22 -68
-22 -30 0 -127 -85 -122 -107 3 -10 -7 -51 -21 -92 -14 -41 -25 -86 -25 -100
0 -14 -11 -36 -24 -50 -14 -15 -27 -38 -31 -52 -5 -22 0 -30 34 -54 43 -29 48
-43 30 -76 -12 -23 -3 -59 15 -59 7 0 13 12 14 28 0 15 4 41 7 58 6 28 3 34
-34 60 -45 32 -46 54 -5 87 17 13 24 29 24 51 0 18 11 66 25 107 14 40 23 79
21 86 -6 16 72 83 96 83 10 0 37 9 60 21 37 19 42 19 50 5 10 -17 54 -21 76
-7 13 8 23 24 68 110 23 43 24 44 85 48 37 2 86 -2 125 -12 61 -15 65 -15 105
6 27 13 52 19 70 15 36 -7 106 18 140 50 l26 25 48 -56 c33 -40 53 -55 66 -52
13 3 21 -3 28 -24 8 -25 15 -29 46 -29 20 0 43 -7 51 -15 9 -8 31 -15 49 -15
19 0 37 -4 40 -10 3 -5 19 -10 36 -10 26 0 29 3 29 30 0 29 1 30 49 30 30 0
53 -5 61 -14 12 -15 135 -66 158 -66 7 0 12 14 12 34 0 27 8 41 40 70 22 20
47 36 56 36 8 0 37 22 63 49 37 38 54 48 70 44 11 -3 21 -13 21 -22 0 -34 54
-118 98 -154 l47 -37 8 23 c4 13 23 31 42 40 30 14 35 22 35 52 0 45 21 58
128 80 76 17 84 17 100 2 15 -14 25 -15 56 -6 21 6 49 8 62 5 14 -4 45 4 80
19 41 18 67 24 89 19 25 -4 36 -1 46 14 8 10 29 27 46 36 18 9 54 38 80 63 46
47 47 48 49 118 2 60 -1 74 -21 101 -23 30 -23 33 -10 84 12 45 26 66 84 124
63 63 84 77 188 123 65 29 138 60 163 68 24 9 54 25 66 36 31 29 101 48 144
38 31 -7 104 2 116 14 3 2 0 16 -6 31 -10 29 -14 23 68 99 22 21 44 46 47 57
9 29 65 43 115 30 58 -16 155 -2 206 28 39 24 42 29 42 69 0 23 -4 45 -9 49
-21 13 -5 43 51 99 33 33 60 67 60 76 0 23 44 50 91 56 22 3 39 9 39 13 0 4
40 11 89 14 76 6 92 11 112 32 16 17 33 24 59 24 42 0 64 19 81 69 11 30 15
33 46 29 33 -4 37 0 79 58 46 65 79 83 114 64 10 -6 53 -13 95 -17 l76 -6 25
-44 c14 -23 30 -43 35 -43 5 0 9 -7 9 -15 0 -33 85 -88 157 -100 44 -7 59 -25
44 -53 -6 -12 0 -31 24 -68 l33 -52 49 5 c26 3 62 14 79 24 57 34 73 18 28
-29 -26 -28 -54 -84 -54 -108 0 -8 9 -14 20 -14 11 0 29 -9 40 -20 13 -13 42
-23 82 -29 44 -6 66 -14 79 -30 9 -11 25 -21 34 -21 9 0 19 -9 22 -20 4 -14
14 -20 34 -20 16 0 29 -4 29 -10 0 -5 7 -10 15 -10 22 0 -30 -48 -57 -52 -15
-2 -23 -10 -23 -23 0 -15 8 -21 33 -23 39 -4 43 -27 5 -37 -16 -4 -34 -11 -40
-17 -18 -15 -16 -45 3 -56 10 -6 14 -20 12 -43 -2 -29 -7 -34 -30 -37 -15 -2
-34 -12 -41 -23 -8 -10 -17 -16 -20 -13 -8 8 -57 -4 -57 -14 0 -5 55 -26 123
-47 67 -21 144 -49 170 -62 35 -17 57 -22 78 -18 18 4 51 0 84 -10 30 -10 63
-15 75 -12 23 6 23 0 10 -78 -9 -54 7 -111 34 -121 8 -3 20 -19 26 -35 14 -32
111 -99 146 -99 12 0 41 -16 65 -35 28 -22 50 -33 62 -29 22 7 123 -32 153
-58 14 -12 36 -18 69 -18 30 0 55 -6 66 -16 16 -15 18 -13 30 28 7 23 19 47
26 51 15 9 72 96 103 156 12 25 18 50 15 64 -9 35 37 87 77 87 18 0 43 10 60
25 16 14 36 25 43 25 7 0 21 8 31 18 17 16 17 16 12 -5 -4 -16 1 -26 18 -38
32 -21 45 -13 137 85 67 71 80 80 111 80 19 0 46 4 59 9 31 12 34 5 78 -172
l32 -128 -20 -22 c-11 -12 -26 -32 -33 -45 -6 -13 -25 -28 -41 -34 -16 -5 -29
-14 -29 -20 0 -18 60 -97 78 -102 98 -29 165 -43 184 -39 28 7 94 48 125 76
24 21 26 21 192 -2 55 -8 78 -8 88 1 11 9 22 3 51 -28 21 -21 68 -59 106 -83
l68 -44 -7 -57 -7 -57 39 -30 c28 -23 53 -32 98 -37 81 -10 95 -15 95 -33 0
-9 11 -31 25 -49 24 -32 25 -35 10 -63 -21 -41 -19 -51 16 -89 27 -30 33 -33
72 -27 36 5 54 0 132 -38 50 -24 96 -51 104 -60 7 -10 24 -17 36 -17 12 0 34
-9 48 -20 25 -20 81 -32 141 -31 16 0 53 12 82 27 49 25 55 26 77 12 21 -15
25 -14 61 13 21 15 57 31 81 34 60 9 64 15 73 80 8 63 13 69 78 85 59 14 107
64 139 141 26 65 28 66 73 75 38 8 59 6 104 -9 l58 -19 51 32 c41 25 59 30 85
25 l33 -6 3 -127 c3 -109 1 -130 -14 -148 -22 -25 -23 -66 -2 -106 12 -23 14
-36 6 -48 -6 -11 -6 -49 0 -115 6 -66 6 -111 -1 -139 -11 -43 -9 -52 8 -42 17
11 22 86 13 184 -6 68 -5 98 4 110 9 12 8 22 -7 46 -21 35 -25 76 -8 93 8 8
20 0 46 -27 66 -74 25 -71 908 -68 883 3 824 -2 882 75 l28 36 3 681 c2 494
-1 688 -9 708 -16 39 -71 85 -116 97 -55 16 -1568 15 -1614 0 -40 -14 -85 -53
-105 -91 -11 -21 -15 -134 -20 -561 l-7 -535 -33 5 c-25 4 -46 -2 -87 -26
l-55 -31 -52 20 c-52 21 -61 20 -151 -6 -9 -2 -28 -36 -44 -75 -32 -82 -74
-120 -155 -139 -46 -11 -50 -14 -55 -48 -14 -90 -17 -95 -68 -108 -26 -7 -59
-20 -73 -29 -19 -12 -36 -15 -65 -10 -31 5 -45 2 -71 -17 -28 -19 -45 -23
-110 -23 -56 1 -82 5 -95 17 -10 9 -31 20 -48 24 -16 3 -39 15 -50 25 -11 9
-58 36 -105 59 -72 35 -92 41 -130 36 -40 -4 -47 -2 -67 23 -21 27 -21 29 -6
72 16 44 16 45 -10 73 -15 16 -27 37 -27 47 0 25 -24 36 -104 44 -54 6 -75 13
-99 35 -30 26 -30 28 -20 79 l10 53 -76 51 c-42 29 -93 69 -114 91 -33 32 -42
37 -60 29 -21 -9 -92 -4 -205 15 l-42 7 25 37 c14 20 25 49 25 64 0 51 107
172 190 214 23 12 49 34 58 50 9 16 26 31 37 34 11 3 28 11 38 19 18 12 16 15
-20 39 -44 29 -45 32 -44 132 0 56 4 75 25 107 l26 38 -21 36 c-13 22 -25 66
-30 117 -5 45 -14 87 -20 95 -18 21 -4 38 41 53 23 8 48 24 56 36 8 11 33 29
57 39 58 25 121 88 154 153 18 36 38 60 58 69 16 8 43 22 60 30 21 12 52 16
108 14 75 -1 80 0 120 32 23 19 58 37 78 41 34 6 37 4 38 -16 0 -13 3 -41 7
-63 5 -37 3 -41 -24 -57 -21 -13 -33 -30 -41 -62 -15 -62 -15 -63 22 -75 34
-12 72 -47 120 -112 22 -31 33 -37 69 -39 82 -6 150 -2 161 9 6 6 13 43 15 81
4 69 4 70 -27 87 -17 10 -31 21 -31 25 0 3 16 25 35 48 19 23 35 46 35 52 0 6
11 3 24 -5 13 -9 32 -16 42 -16 11 1 35 -2 54 -5 56 -9 156 47 144 79 -3 6 4
19 15 29 17 16 19 27 14 87 l-6 70 31 11 c38 15 39 16 53 131 11 90 30 147 49
147 20 0 48 64 55 124 4 33 14 74 22 89 13 25 12 33 -3 73 -9 24 -21 44 -26
44 -5 0 -40 -13 -78 -30 -38 -16 -84 -30 -102 -30 -66 0 -324 -94 -365 -133
-13 -11 -25 -19 -27 -16 -2 2 -6 25 -9 51 -6 40 -3 51 17 75 40 49 49 75 47
141 -2 71 16 112 49 112 10 0 22 9 25 20 12 38 25 20 25 -34 l0 -54 34 8 c19
4 40 4 47 -1 8 -5 37 -9 65 -9 33 0 56 -5 64 -15 11 -13 27 -13 98 1 14 3 22
12 22 24 0 18 32 60 45 60 3 0 9 0 13 0 19 0 83 73 89 101 7 38 45 62 84 54
26 -6 35 -1 75 39 24 25 55 48 68 52 26 6 49 46 39 70 -3 8 4 29 17 46 19 25
20 34 11 55 -15 32 -16 30 25 43 l35 12 -65 68 c-68 70 -84 110 -46 110 13 0
22 9 26 25 7 28 49 54 76 48 10 -3 37 9 62 26 25 18 58 31 74 31 21 0 38 9 56
31 29 34 31 40 14 57 -9 9 -7 13 5 18 9 3 17 13 17 21 0 11 9 13 44 8 69 -11
159 30 235 104 33 33 73 67 89 75 16 8 41 29 55 45 19 23 27 27 37 18 10 -10
11 -7 6 14 -7 32 10 49 73 73 25 10 59 30 76 45 17 15 45 33 63 40 36 15 36
17 22 91 -12 62 -15 58 111 126 94 50 110 69 115 129 3 27 11 46 26 58 13 10
33 27 44 37 12 11 27 20 33 20 6 0 11 9 11 20 0 11 5 29 11 39 9 14 9 25 -2
50 -8 17 -17 31 -21 31 -5 0 -8 5 -8 12 0 6 -7 20 -16 29 -15 17 -15 21 0 53
9 19 18 60 21 91 2 32 6 59 9 62 2 3 1 16 -4 28 -7 19 -5 25 10 30 22 7 70 65
70 84 0 6 18 29 40 50 27 26 38 44 34 55 -4 11 -1 16 10 16 9 0 15 5 14 11 -3
13 53 49 65 42 11 -7 48 7 42 17 -3 4 2 24 10 43 8 19 11 37 8 41 -4 3 -2 6 4
6 13 0 6 38 -11 59 -6 7 -9 26 -8 42 3 21 -1 29 -12 29 -9 0 -13 6 -10 14 3 8
-2 28 -10 45 -9 16 -16 44 -16 61 0 20 -5 30 -15 30 -21 0 -19 27 3 39 9 5 28
7 42 4 16 -3 33 3 47 16 12 12 26 21 32 21 5 0 7 8 4 18 -2 10 9 47 26 82 34
69 37 90 20 122 -10 18 -7 24 20 45 25 20 29 28 21 43 -6 10 -10 32 -10 48 0
16 -7 35 -16 43 -21 18 -40 57 -48 102 -4 20 -11 37 -16 37 -6 0 -10 6 -10 14
0 8 -22 21 -52 31 -126 41 -198 81 -184 104 4 5 1 13 -4 16 -6 4 -10 17 -9 28
2 21 -1 34 -22 86 -5 12 -7 37 -4 55 3 17 7 64 9 105 l4 75 65 60 65 61 11
100 c17 141 16 138 62 132 36 -5 40 -2 71 39 37 50 44 50 137 8 85 -38 123
-33 261 36 83 42 118 64 114 74 -6 14 40 56 62 56 7 0 19 -7 28 -15 12 -13 22
-14 48 -5 l33 10 -32 -5 c-18 -2 -35 0 -39 6 -3 6 -17 14 -29 19 -20 7 -30 4
-57 -22 -18 -17 -32 -37 -30 -43 1 -8 -45 -37 -107 -69 -119 -61 -183 -72
-229 -40 -12 8 -47 24 -77 34 l-55 19 -11 -22 c-25 -49 -51 -67 -95 -67 -25 0
-44 -5 -47 -13 -3 -7 -11 -63 -18 -125 -11 -103 -15 -113 -38 -129 -48 -31
-91 -77 -101 -109 -14 -40 -21 -215 -11 -229 5 -5 13 -39 19 -74 7 -35 18 -71
27 -81 8 -9 15 -25 15 -35 0 -14 3 -15 14 -6 11 10 23 8 53 -7 21 -11 62 -27
91 -36 30 -10 52 -24 52 -32 0 -8 4 -14 10 -14 5 0 7 -7 4 -15 -4 -8 -1 -15 5
-15 6 0 11 -11 11 -25 0 -13 13 -39 29 -57 41 -47 47 -113 14 -150 -23 -24
-24 -29 -12 -61 11 -31 9 -39 -20 -97 -17 -35 -31 -70 -31 -78 0 -24 -50 -64
-72 -58 -34 8 -68 -11 -68 -39 0 -16 6 -25 16 -25 12 0 15 -6 11 -21 -3 -12 3
-38 13 -59 15 -28 16 -40 7 -49 -9 -9 -7 -13 10 -17 15 -4 20 -12 17 -27 -2
-11 1 -26 7 -33 15 -18 21 -64 9 -64 -6 0 -8 -4 -5 -10 3 -5 0 -28 -6 -50 -10
-31 -16 -39 -30 -35 -9 3 -20 1 -24 -5 -3 -5 -15 -10 -25 -10 -19 0 -67 -57
-62 -76 1 -5 -14 -25 -33 -44 -19 -19 -35 -42 -35 -52 0 -10 -4 -18 -9 -18 -5
0 -11 -9 -14 -21 -3 -11 -18 -25 -34 -31 -27 -10 -28 -12 -29 -89 -1 -48 -8
-97 -19 -125 -15 -41 -16 -47 -1 -69 48 -74 56 -95 44 -118 -7 -12 -11 -28
-10 -34 2 -7 -4 -13 -13 -13 -8 0 -15 -4 -15 -10 0 -5 -16 -20 -35 -32 -34
-23 -63 -77 -50 -98 12 -20 -31 -63 -99 -97 -39 -20 -87 -47 -106 -61 -19 -15
-37 -27 -39 -29 -2 -1 1 -8 6 -15 6 -7 13 -34 16 -59 l6 -45 -44 -22 c-25 -12
-45 -26 -45 -32 0 -6 -34 -27 -76 -46 -41 -20 -78 -44 -81 -53 -13 -35 -46
-72 -81 -90 -21 -10 -65 -46 -99 -80 -38 -37 -84 -71 -119 -86 -58 -26 -104
-32 -104 -15 0 19 -48 11 -55 -9 -3 -11 -15 -23 -26 -26 -19 -6 -27 -25 -10
-25 5 0 11 -6 14 -14 9 -22 -38 -66 -69 -66 -15 0 -49 -14 -75 -31 -27 -17
-53 -28 -58 -24 -19 11 -78 -22 -85 -48 -3 -13 -15 -27 -26 -30 -14 -4 -20
-13 -20 -33 0 -22 14 -42 61 -86 l62 -57 -27 -11 c-15 -5 -32 -10 -37 -10 -13
0 -11 -7 7 -35 16 -25 10 -49 -20 -74 -10 -9 -14 -22 -10 -38 7 -25 -18 -63
-42 -63 -14 0 -31 -15 -63 -56 -16 -21 -29 -26 -60 -26 -47 1 -86 -25 -95 -64
-8 -31 -67 -94 -88 -94 -19 0 -58 -42 -58 -63 0 -20 -40 -32 -78 -22 -15 4
-54 9 -87 12 -33 3 -64 8 -69 13 -4 5 -24 6 -42 3 l-34 -6 0 49 c0 69 -13 86
-35 45 -9 -18 -19 -30 -23 -27 -3 4 -18 -6 -34 -21 -26 -25 -28 -32 -28 -103
0 -72 -2 -80 -33 -121 -39 -52 -50 -76 -37 -84 6 -4 10 -22 10 -41 0 -39 10
-42 48 -14 63 46 298 128 369 128 17 0 50 11 74 23 24 12 56 25 70 29 25 8 29
5 43 -31 14 -34 14 -43 2 -62 -8 -12 -17 -51 -21 -87 -8 -76 -12 -83 -58 -132
-32 -34 -35 -44 -47 -134 -15 -120 -15 -120 -52 -133 -30 -11 -30 -11 -27 -79
3 -55 0 -74 -16 -98 -11 -16 -18 -34 -17 -41 4 -17 -93 -63 -120 -57 -13 3
-38 7 -56 9 -19 2 -42 11 -51 19 -24 21 -43 20 -39 -2 2 -10 -12 -35 -30 -56
-40 -46 -41 -70 -2 -86 28 -12 30 -16 30 -69 0 -81 -12 -93 -91 -92 -35 1 -75
2 -89 2 -13 1 -31 11 -39 22 -33 48 -103 116 -132 127 -20 8 -28 18 -25 27 4
8 6 23 6 34 0 11 16 35 36 53 27 25 36 41 35 62 -1 16 -2 46 -3 66 -1 34 -4
38 -29 38 -39 0 -74 -15 -117 -49 -35 -28 -42 -30 -117 -28 -60 1 -88 -3 -110
-15 -16 -10 -44 -24 -60 -32 -21 -10 -39 -33 -59 -74 -31 -65 -90 -122 -153
-149 -21 -8 -44 -24 -52 -35 -7 -11 -34 -29 -59 -39 -55 -24 -66 -38 -47 -59
8 -9 17 -48 21 -91 3 -41 15 -91 25 -112 24 -48 24 -51 -6 -95 -19 -27 -25
-50 -25 -87 0 -95 9 -123 48 -147 l35 -21 -37 -19 c-20 -10 -40 -25 -43 -33
-3 -8 -10 -12 -16 -8 -6 4 -8 0 -5 -8 4 -11 -10 -24 -46 -43 -66 -37 -87 -57
-147 -137 -31 -42 -47 -73 -43 -83 12 -32 -60 -119 -145 -171 -49 -31 -82 -31
-183 -1 -45 13 -62 24 -78 50 -25 42 -25 43 4 50 13 3 29 18 36 35 6 16 22 39
35 51 l22 21 -37 147 c-44 175 -53 197 -83 187 -12 -3 -44 -9 -72 -12 -47 -6
-54 -10 -128 -89 -44 -46 -85 -84 -92 -84 -23 0 -27 18 -10 49 15 30 15 30
-13 28 -15 -1 -35 -12 -45 -25 -10 -12 -25 -22 -32 -22 -7 0 -27 -11 -43 -25
-17 -15 -42 -25 -60 -25 -42 0 -93 -59 -90 -104 2 -37 -59 -156 -102 -196 -15
-14 -30 -36 -33 -51 -6 -25 -6 -25 -70 -15 -35 6 -70 16 -78 22 -28 21 -147
63 -166 58 -14 -4 -27 3 -41 21 -14 17 -37 31 -64 37 -52 11 -126 56 -134 81
-3 10 -19 32 -36 49 -30 30 -30 34 -24 97 3 36 9 77 12 90 7 22 5 23 -37 20
-24 -2 -61 3 -82 10 -21 7 -55 11 -75 8 -25 -3 -50 3 -77 16 -22 11 -81 33
-132 49 -87 27 -93 30 -83 49 7 12 18 18 28 15 29 -9 50 17 53 63 3 33 -1 46
-15 56 -23 17 -14 32 25 40 38 9 70 75 35 75 -9 0 -12 7 -9 20 4 14 14 20 34
20 15 0 30 3 33 8 10 17 -58 72 -90 72 -9 0 -25 11 -36 25 -11 14 -24 23 -29
20 -5 -4 -9 -2 -9 4 0 17 -57 41 -106 45 -29 2 -50 9 -55 19 -5 8 -22 18 -38
22 -28 6 -28 8 -17 37 6 17 23 41 39 53 18 16 27 33 27 53 0 42 -24 47 -76 17
-26 -15 -58 -25 -81 -25 -35 0 -42 4 -62 40 -16 29 -19 44 -12 58 15 28 -17
61 -64 69 -64 9 -135 52 -142 85 -3 15 -11 28 -17 28 -6 0 -23 20 -37 44 -26
42 -28 44 -90 50 -69 6 -79 8 -121 20 -47 14 -74 -1 -120 -64 -39 -53 -47 -59
-79 -60 -32 0 -38 -4 -60 -48 -22 -43 -27 -47 -64 -50 -24 -2 -50 -12 -65 -26
-20 -19 -41 -25 -110 -30 -47 -4 -89 -11 -94 -16 -6 -6 -22 -10 -36 -10 -33 0
-100 -46 -100 -68 0 -10 -29 -47 -65 -82 -65 -64 -82 -104 -51 -116 8 -3 13
-17 11 -37 -5 -60 -123 -100 -222 -75 -62 15 -117 -2 -139 -44 -9 -17 -30 -43
-48 -57 -70 -58 -78 -70 -71 -103 l7 -30 -68 4 c-77 5 -145 -10 -178 -40 -11
-11 -62 -36 -111 -55 -198 -79 -235 -101 -316 -184 -67 -69 -77 -84 -88 -135
-12 -56 -12 -58 15 -93 25 -33 26 -38 15 -75 -8 -27 -9 -46 -2 -57 7 -14 0
-26 -37 -61 -26 -24 -59 -50 -74 -58 -14 -7 -34 -21 -43 -31 -11 -11 -30 -16
-51 -14 -18 1 -47 -5 -65 -15 -18 -9 -67 -20 -108 -25 -61 -7 -78 -6 -92 7
-15 13 -27 12 -120 -10 -111 -26 -149 -52 -149 -101 0 -16 -10 -31 -27 -42
-16 -10 -31 -22 -36 -28 -13 -18 -95 79 -109 129 -9 34 -19 48 -40 57 -25 10
-32 8 -63 -15 -20 -15 -43 -38 -51 -52 -9 -13 -24 -24 -34 -24 -29 0 -110 -78
-110 -107 0 -22 -3 -24 -27 -18 -47 11 -113 43 -113 54 0 7 -29 11 -76 11
l-77 0 6 -30 c7 -30 -8 -41 -28 -21 -6 5 -26 11 -45 13 -21 2 -34 8 -32 16 1
8 -13 12 -47 12 -47 0 -50 2 -56 30 -5 25 -12 30 -35 30 -39 0 -125 99 -114
132 5 13 7 60 5 106 l-3 83 38 32 c21 18 52 47 69 65 17 17 36 32 42 32 5 0
18 9 28 20 10 11 24 20 31 20 7 0 17 6 21 12 15 24 52 38 97 38 98 0 125 37
113 153 -11 97 -6 117 33 140 43 26 36 78 -13 91 -29 7 -121 97 -136 134 -6
15 -27 38 -46 51 -48 33 -98 97 -120 156 -10 27 -31 105 -45 174 l-27 124 43
92 c25 53 55 100 68 109 41 26 78 84 87 133 11 55 27 75 91 110 l47 26 -6 46
c-3 25 -17 66 -30 90 -25 48 -29 100 -12 149 9 26 8 35 -5 48 -9 8 -16 19 -16
22 0 4 -23 13 -51 19 -29 7 -66 23 -83 37 -17 13 -46 27 -64 30 -36 8 -39 20
-17 73 9 21 19 64 22 98 5 51 12 68 49 112 70 87 130 207 159 322 14 58 35
117 46 133 l20 28 -28 25 c-15 13 -32 25 -37 25 -5 0 -6 22 -2 49 7 52 -13
161 -41 220 -11 24 -14 49 -10 84 6 44 3 54 -24 93 -16 24 -34 44 -39 44 -5 0
-12 17 -16 38 -4 20 -12 40 -17 44 -17 10 -18 103 -2 170 8 34 12 80 9 103 -5
30 1 57 21 105 38 94 41 141 15 234 -19 67 -20 85 -10 123 9 38 8 48 -4 62
-15 16 -13 17 21 14 22 -1 44 3 54 13 9 8 23 12 32 9 20 -8 31 26 21 68 -4 17
-7 36 -5 41 4 17 -21 149 -36 184 -12 30 -17 33 -40 27 -16 -4 -39 0 -57 8
-17 8 -43 21 -58 27 -15 7 -44 38 -64 68 l-37 56 6 84 c6 75 4 88 -14 114 -12
16 -18 36 -15 44 3 8 -1 29 -9 45 -9 16 -13 34 -10 39 3 6 2 10 -3 10 -6 0
-12 10 -16 23 -5 21 -34 53 -119 135 -15 15 -41 54 -57 87 -16 33 -42 70 -59
83 -16 12 -39 42 -50 66 -14 33 -30 50 -57 63 -27 13 -40 27 -46 49 -4 17 -17
39 -28 49 -24 22 -27 81 -5 112 9 12 28 31 45 43 l29 20 108 -42 108 -43 140
1 c137 1 142 1 225 36 83 35 85 37 88 72 3 29 13 44 57 82 29 26 56 57 59 70
4 13 17 31 31 40 14 9 25 21 25 26 0 5 11 24 25 42 15 20 22 39 19 53 -4 14 4
32 25 56 17 19 31 39 31 44 0 5 11 20 24 32 43 40 41 62 -14 153 -67 111 -65
140 10 178 43 22 130 98 130 113 0 20 63 87 104 111 23 14 69 55 100 92 47 55
57 73 54 96 -3 18 0 28 8 28 20 0 46 57 43 94 -2 22 4 42 19 61 12 15 22 31
22 36 0 4 15 17 34 29 19 11 43 34 54 51 11 17 37 41 58 53 29 16 41 31 49 61
7 21 16 40 22 42 7 3 30 -5 53 -17 40 -21 41 -21 68 -2 15 11 44 24 65 30 33
9 39 8 50 -9 7 -11 23 -19 39 -19 23 0 29 6 38 40 17 61 40 47 40 -25 0 -40
19 -57 67 -61 27 -3 42 2 55 16 11 11 24 20 31 20 29 0 87 22 87 33 0 48 23
86 73 120 29 20 60 50 70 67 26 43 43 35 66 -31 9 -25 11 -26 64 -18 63 8 167
70 167 100 0 10 -16 30 -35 45 -41 31 -43 43 -11 66 23 17 24 16 29 -2 8 -31
73 -38 119 -11 l39 22 25 -31 c14 -16 33 -30 42 -30 8 0 40 -8 69 -17 45 -14
56 -15 63 -4 12 20 40 6 40 -20 0 -19 4 -21 33 -15 17 4 52 9 77 13 29 3 55
15 73 32 37 34 97 36 127 3 11 -12 28 -22 36 -22 9 0 29 -13 45 -30 17 -17 46
-32 67 -36 20 -4 42 -10 47 -14 19 -14 52 -17 69 -8 14 8 25 3 50 -24 64 -67
139 -98 212 -86 l53 8 52 -55 c42 -45 64 -59 109 -73 47 -13 60 -22 76 -52 14
-25 38 -45 89 -72 39 -21 77 -38 85 -38 9 0 31 -13 50 -29 51 -41 93 -61 147
-67 55 -7 128 -49 190 -107 l41 -39 31 33 c17 19 31 40 31 47 0 8 21 33 47 57
41 37 51 41 74 33 16 -5 35 -5 51 1 14 5 50 7 80 4 51 -5 56 -3 85 26 36 35
49 39 57 13 9 -27 173 -101 259 -117 21 -4 40 -11 43 -16 9 -16 -6 -48 -26
-54 -10 -3 -32 -28 -49 -55 -38 -61 -43 -135 -15 -203 16 -39 25 -49 59 -60
67 -21 80 -14 142 79 41 62 62 84 78 84 30 0 45 -19 45 -58 0 -30 14 -70 29
-82 13 -10 31 -62 26 -71 -4 -5 6 -14 21 -19 15 -6 33 -18 39 -27 11 -14 14
-14 38 2 20 13 25 23 21 40 -5 20 -1 24 35 30 37 6 39 8 31 30 -7 19 -5 24 11
28 17 5 19 11 14 40 -5 27 -2 39 21 66 20 24 33 31 49 27 35 -9 43 24 28 113
-36 219 -37 238 -14 276 11 20 21 43 21 51 0 8 5 14 12 14 6 0 27 12 45 26 27
21 39 24 56 17 12 -5 40 -6 62 -2 33 5 45 3 71 -18 18 -13 35 -31 38 -39 3 -7
14 -14 24 -14 11 0 25 -6 32 -14 6 -8 18 -12 26 -9 8 3 24 -1 37 -9 39 -26 70
-28 155 -11 76 15 84 15 100 -1 10 -9 25 -16 33 -16 8 0 23 -6 34 -14 11 -7
56 -17 101 -21 l80 -7 31 35 c36 41 63 57 96 57 14 0 80 14 147 31 118 30 172
32 242 13 11 -3 29 12 58 51 54 73 72 73 159 -2 36 -31 67 -58 69 -59 2 -1 11
-30 20 -64 l17 -62 52 -2 c45 -1 57 -6 80 -31 16 -17 50 -39 77 -49 l50 -19
50 57 c28 31 59 56 68 56 30 0 71 -23 138 -75 93 -74 126 -95 145 -95 22 0 44
-28 45 -57 0 -43 95 -95 148 -81 16 5 17 -4 14 -96 -3 -72 0 -111 10 -136 l15
-35 46 49 c49 51 54 64 36 98 -6 11 -14 44 -18 73 l-7 52 159 37 c227 54 259
47 273 -62 2 -18 14 -46 26 -62 17 -24 19 -32 9 -44 -7 -8 -15 -39 -18 -70
l-6 -55 37 -17 c19 -10 38 -25 41 -34 3 -10 13 -24 23 -33 15 -14 24 -13 92 9
41 13 78 24 81 24 3 0 11 -11 17 -25 6 -14 18 -25 26 -25 8 0 25 -18 37 -40
20 -35 27 -40 57 -40 31 0 34 -2 28 -25 -6 -23 -4 -25 30 -25 20 0 69 15 110
33 l73 32 16 69 c26 113 27 147 4 186 l-21 35 22 45 c13 25 27 53 31 62 12 25
11 56 -2 64 -15 9 -5 84 13 95 10 7 10 9 0 9 -15 0 -32 -41 -32 -81 0 -32 -14
-37 -41 -13 -14 13 -24 13 -60 4 -24 -7 -61 -21 -81 -31 -47 -24 -46 -24 -41
5 4 17 -1 27 -15 35 -11 6 -27 24 -35 41 -15 28 -14 31 14 67 16 20 51 51 77
68 26 18 53 44 60 59 6 14 17 37 24 51 7 15 17 24 25 21 7 -3 24 -1 37 4 23 8
24 11 13 46 -8 27 -8 39 -1 41 15 5 9 55 -15 133 -18 57 -19 67 -6 87 8 12 25
28 37 34 19 10 20 13 6 23 -12 9 -16 29 -15 82 1 56 -4 79 -23 115 -12 24 -24
62 -26 84 -2 22 -5 55 -6 74 -3 30 -7 36 -37 43 -47 13 -69 43 -77 108 -4 30
-18 84 -32 120 -13 36 -28 76 -32 90 -5 15 -9 18 -9 8 -1 -9 12 -52 28 -95 16
-43 32 -100 35 -128 7 -61 31 -95 77 -110 30 -11 34 -16 31 -43 -2 -16 2 -33
8 -37 5 -3 7 -17 4 -31 -5 -18 2 -41 21 -76 24 -44 27 -61 27 -129 -1 -56 2
-79 11 -79 6 0 -3 -14 -20 -31 -18 -16 -33 -33 -33 -36 0 -3 9 -36 20 -74 15
-49 19 -85 16 -131 -3 -35 -5 -67 -6 -72 0 -4 -11 -5 -24 -2 -26 6 -47 -17
-60 -66 -3 -15 -23 -40 -44 -55 -67 -50 -133 -125 -126 -142 4 -9 6 -24 6 -33
0 -9 8 -20 18 -23 30 -10 44 -33 31 -49 -23 -27 24 -29 76 -3 68 34 98 40 113
22 7 -8 25 -15 41 -15 33 0 37 -15 13 -48 -9 -13 -13 -26 -10 -29 3 -3 -3 -18
-14 -33 -24 -34 -25 -41 -2 -88 19 -40 19 -44 8 -117 -17 -114 -22 -121 -102
-155 -79 -33 -119 -39 -111 -16 8 20 -13 36 -45 36 -22 0 -32 8 -48 40 -11 22
-27 40 -35 40 -9 0 -21 11 -27 25 -14 30 -18 30 -102 4 -72 -22 -102 -19 -111
11 -3 10 -22 28 -42 40 -35 21 -35 21 -29 71 4 28 12 59 19 69 9 16 7 25 -11
49 -12 17 -22 40 -22 52 0 46 -23 88 -53 99 -47 16 -82 12 -248 -27 l-156 -37
4 -45 c3 -25 11 -63 19 -84 8 -20 14 -39 14 -41 0 -1 -18 -22 -40 -46 l-39
-43 -11 27 c-13 34 -13 160 -1 204 l10 33 -47 -7 c-39 -5 -53 -2 -81 18 -19
12 -37 30 -41 38 -28 62 -38 74 -62 81 -31 8 -115 66 -168 115 -20 19 -56 38
-83 46 l-47 12 -58 -57 -57 -57 -51 24 c-28 13 -59 34 -67 47 -13 17 -28 23
-70 27 l-55 4 -17 64 c-9 35 -21 64 -26 64 -4 0 -34 24 -66 54 -84 77 -115 78
-168 5 l-37 -51 -71 6 c-61 6 -91 2 -197 -23 -68 -17 -137 -31 -152 -31 -19 0
-43 -13 -72 -40 -43 -40 -44 -40 -123 -40 -59 0 -84 4 -93 15 -7 8 -22 15 -33
15 -11 0 -29 8 -39 17 -17 15 -25 16 -101 1 -73 -14 -86 -14 -122 -1 -22 8
-51 17 -65 20 -14 3 -33 12 -42 21 -10 8 -18 11 -18 6 -1 -5 -8 0 -18 11 -42
50 -72 65 -117 58 -23 -3 -51 -1 -61 5 -29 16 -108 -45 -142 -110 -23 -43 -27
-59 -20 -88 4 -19 12 -75 18 -125 5 -49 12 -110 15 -134 6 -43 6 -43 -20 -39
-36 7 -88 -57 -83 -104 2 -28 0 -32 -16 -30 -16 3 -18 -1 -13 -27 5 -25 3 -31
-11 -31 -29 0 -61 -28 -55 -48 2 -10 -2 -24 -11 -31 -12 -10 -18 -9 -35 8 -12
12 -25 21 -30 21 -5 0 -12 13 -16 30 -3 16 -15 40 -26 54 -11 14 -24 49 -28
77 -9 56 -23 71 -61 67 -19 -2 -38 -23 -80 -85 -59 -89 -72 -95 -138 -72 -38
13 -62 68 -62 141 0 57 23 104 78 155 49 47 42 74 -23 89 -27 6 -72 21 -98 33
-27 11 -55 21 -62 21 -28 0 -86 43 -98 72 l-12 30 -43 -41 c-41 -40 -43 -41
-109 -40 -38 0 -77 0 -88 0 -11 -1 -28 0 -38 1 -22 4 -116 -72 -117 -94 0 -9
-11 -29 -24 -45 l-24 -27 -39 35 c-55 50 -140 96 -193 104 -53 9 -127 44 -154
74 -11 12 -25 21 -31 21 -7 0 -41 13 -76 29 -64 29 -93 52 -113 93 -7 13 -32
28 -66 40 -38 13 -71 34 -108 71 l-53 52 -84 0 c-74 0 -86 3 -105 22 -11 13
-31 25 -43 29 -13 3 -31 18 -41 35 -16 26 -21 29 -57 23 -23 -4 -44 -2 -52 4
-7 6 -32 14 -54 18 -23 3 -44 12 -47 20 -3 7 -24 23 -48 35 -24 12 -54 30 -67
40 -37 29 -92 25 -125 -10 -19 -20 -41 -30 -74 -34 -26 -4 -57 -9 -69 -13 -19
-5 -23 -2 -23 15 0 26 -26 38 -51 23 -14 -9 -28 -8 -60 3 -23 8 -51 15 -63 15
-13 0 -32 13 -44 30 -27 36 -35 37 -73 9 -23 -16 -38 -19 -69 -14 -50 8 -53
33 -9 68 30 23 34 24 64 11 39 -16 74 -8 133 31 37 24 40 30 35 61 -7 45 14
76 76 110 l50 27 -26 34 -26 34 19 35 c29 55 59 74 118 74 42 0 61 6 102 34
51 34 77 76 48 76 -8 0 -17 -6 -20 -14z m8014 -7656 c43 -26 75 -78 59 -95 -7
-7 -14 -12 -17 -10 -5 3 -80 -16 -110 -27 -74 -29 -117 -29 -185 2 -22 10 -49
21 -60 25 -25 10 -78 6 -85 -6 -9 -14 -67 -22 -74 -10 -4 6 -18 11 -32 11 -13
0 -24 3 -24 8 0 12 -59 34 -71 26 -7 -4 -28 -7 -48 -6 -20 0 -30 -2 -23 -5 6
-2 12 -11 12 -19 0 -19 7 -18 37 6 14 11 32 20 39 20 7 0 18 -9 24 -20 7 -14
21 -20 44 -20 39 0 69 -25 39 -33 -14 -4 -13 -5 5 -6 12 0 22 4 22 10 0 6 7 8
16 5 11 -4 22 1 32 15 12 18 22 20 58 16 24 -2 62 -14 84 -26 51 -27 134 -31
177 -9 23 12 34 13 43 4 8 -8 2 -18 -22 -39 -18 -16 -24 -24 -12 -18 11 5 26
17 34 25 7 9 22 17 34 17 17 1 17 2 4 6 -10 2 -18 9 -18 14 0 11 50 32 58 24
3 -2 11 0 18 6 10 9 15 7 20 -4 8 -22 -3 -106 -15 -121 -8 -10 -7 -17 4 -26
14 -12 16 -42 14 -219 -2 -113 -7 -212 -12 -218 -6 -9 -5 -13 2 -13 8 0 11
-97 11 -346 0 -314 -1 -344 -16 -330 -8 9 -21 16 -29 16 -7 0 -27 17 -44 39
-27 34 -29 40 -16 51 8 7 15 20 14 29 0 13 -1 14 -6 1 -3 -8 -12 -22 -20 -31
-12 -14 -11 -18 2 -29 8 -7 15 -17 15 -22 0 -13 42 -47 58 -48 7 0 17 -11 24
-25 15 -33 -5 -79 -50 -113 l-35 -27 -515 -3 c-410 -2 -517 0 -524 10 -6 10
-8 10 -8 1 0 -23 -25 -9 -31 17 l-7 25 -1 -27 -1 -28 -250 0 c-137 0 -250 4
-250 9 0 5 6 14 14 20 23 19 25 70 4 94 l-20 22 15 -23 c16 -26 11 -65 -14
-100 -16 -22 -19 -22 -50 -9 -40 17 -74 51 -88 90 -13 34 -15 729 -2 708 5 -8
11 -9 15 -3 3 5 -1 12 -9 16 -22 8 -22 599 -1 651 15 36 25 42 42 26 5 -5 25
-11 44 -13 l35 -3 -28 -27 -29 -27 23 -23 23 -23 -17 28 c-14 21 -15 27 -4 27
8 0 19 11 25 25 11 24 14 25 114 25 151 0 216 6 232 20 12 10 21 8 46 -10 23
-17 34 -20 43 -11 8 8 6 11 -8 11 -10 0 -26 7 -36 16 -16 15 -22 15 -61 1 -24
-9 -56 -16 -73 -15 -16 0 -92 0 -167 -1 -177 -1 -203 8 -135 49 31 19 52 20
837 20 786 0 806 -1 838 -20z m-6151 -106 c-3 -3 -12 -4 -19 -1 -8 3 -5 6 6 6
11 1 17 -2 13 -5z m6233 -140 c0 -8 -5 -12 -10 -9 -6 4 -8 11 -5 16 9 14 15
11 15 -7z"/>
<path d="M11150 1848 c14 -6 34 -14 45 -19 11 -4 61 -15 110 -25 50 -9 95 -20
100 -24 6 -4 19 -4 30 1 14 5 15 8 5 9 -17 2 -24 3 -140 25 -47 9 -99 23 -117
31 -17 8 -37 14 -45 13 -7 0 -2 -5 12 -11z"/>
<path d="M11550 1804 l-45 -14 40 6 c22 3 44 10 50 15 11 11 12 11 -45 -7z"/>
<path d="M11466 1792 c-3 -4 4 -9 15 -9 23 -2 25 3 4 10 -8 4 -16 3 -19 -1z"/>
<path d="M11410 1750 c-9 -6 -10 -10 -3 -10 6 0 15 5 18 10 8 12 4 12 -15 0z"/>
<path d="M11769 1743 c-13 -16 -12 -17 4 -4 16 13 21 21 13 21 -2 0 -10 -8
-17 -17z"/>
<path d="M11784 1715 c-11 -22 -10 -24 5 -16 23 12 41 3 41 -20 0 -11 4 -18 9
-15 13 9 1 46 -15 46 -8 0 -14 7 -14 15 0 23 -14 18 -26 -10z"/>
<path d="M10657 1719 c7 -7 15 -10 18 -7 3 3 -2 9 -12 12 -14 6 -15 5 -6 -5z"/>
<path d="M11275 1717 c-11 -7 -24 -18 -30 -25 -12 -15 -91 -35 -146 -36 -20
-1 -44 -7 -52 -15 -16 -13 -57 -7 -57 9 0 11 -39 20 -45 9 -3 -5 -24 -7 -45
-5 -33 3 -43 0 -59 -20 -14 -18 -30 -24 -70 -26 -49 -3 -53 -5 -58 -31 -3 -16
-16 -33 -28 -39 -22 -10 -35 -44 -35 -90 0 -16 5 -19 21 -15 28 7 49 -2 49
-20 0 -9 7 -21 16 -28 14 -9 14 -16 5 -33 -6 -12 -18 -22 -26 -22 -22 0 -55
-54 -48 -80 6 -21 4 -22 -21 -16 -22 5 -28 2 -36 -19 -5 -14 -15 -25 -21 -25
-7 0 -10 -2 -7 -5 10 -11 38 8 38 25 0 13 7 17 28 15 15 -1 35 -6 45 -10 9 -4
24 -2 31 4 11 9 16 9 21 1 4 -7 18 -10 31 -7 19 3 24 -1 29 -25 4 -16 9 -27
12 -24 3 2 2 18 -2 35 -6 27 -9 30 -36 24 -18 -3 -29 -1 -29 6 0 6 -7 11 -15
11 -8 0 -15 -5 -15 -11 0 -22 -33 -3 -36 21 -6 62 28 82 109 68 27 -5 56 -7
65 -5 9 2 -11 7 -46 11 -60 8 -63 10 -58 31 4 14 0 28 -9 35 -8 7 -15 21 -15
31 0 19 -15 24 -54 20 -16 -1 -18 4 -13 36 4 21 17 46 30 57 14 12 27 29 31
39 3 10 10 16 15 12 5 -3 13 0 16 5 4 6 17 10 28 9 45 -3 58 2 68 25 10 21 15
23 35 16 13 -5 24 -6 24 -2 0 11 65 8 81 -4 27 -21 48 -24 58 -6 6 11 23 17
48 18 69 2 140 22 169 49 31 29 48 28 52 -3 2 -11 9 -26 17 -32 14 -12 9 -31
-22 -70 -11 -15 -17 -45 -13 -65 1 -5 2 -26 2 -45 l0 -35 7 35 c4 19 4 40 0
45 -5 6 3 34 17 63 22 46 28 52 57 53 18 0 40 2 49 4 9 2 22 -3 29 -11 6 -8
17 -14 24 -14 8 0 19 -16 25 -35 7 -21 18 -35 28 -35 15 0 15 -2 2 -10 -19
-12 -12 -12 50 1 27 6 50 15 50 20 0 6 -9 5 -21 -1 -15 -9 -24 -8 -35 1 -11 9
-14 9 -14 -2 0 -7 -7 -3 -16 9 -8 12 -19 20 -23 17 -5 -2 -13 7 -19 20 -7 14
-16 25 -22 25 -7 0 -18 7 -26 15 -11 11 -26 13 -55 9 -30 -5 -44 -2 -59 11
-24 22 -26 35 -5 35 8 0 15 4 15 10 0 5 -6 7 -14 4 -8 -3 -17 -1 -21 5 -8 14
-25 13 -50 -2z"/>
<path d="M10705 1700 c-4 -6 -14 -9 -24 -5 -12 5 -13 4 -4 -6 10 -10 16 -9 29
2 16 13 17 12 10 -6 -6 -16 -5 -18 5 -7 9 9 10 15 2 23 -8 8 -13 8 -18 -1z"/>
<path d="M11667 1690 c-9 -11 -24 -20 -32 -20 -8 0 -15 -5 -15 -10 0 -6 13 -4
30 5 17 9 30 20 30 26 0 6 10 8 23 4 17 -5 19 -4 7 4 -20 14 -23 14 -43 -9z"/>
<path d="M11740 1690 c-13 -8 -12 -10 3 -10 9 0 17 5 17 10 0 12 -1 12 -20 0z"/>
<path d="M10676 1654 c-8 -20 -8 -19 24 -29 24 -7 24 -6 6 7 -10 8 -16 20 -12
26 4 7 3 12 -2 12 -6 0 -13 -7 -16 -16z"/>
<path d="M12173 1653 c-4 -10 -14 -23 -22 -30 -9 -7 -11 -12 -6 -13 17 0 32
14 37 38 7 26 0 30 -9 5z"/>
<path d="M11830 1643 c0 -2 11 -8 25 -13 14 -5 25 -14 25 -20 0 -13 -37 -13
-45 0 -3 6 -12 10 -18 10 -7 0 -4 -5 6 -11 23 -14 22 -29 -4 -29 -13 0 -18 4
-13 12 4 7 3 8 -5 4 -18 -12 6 -35 29 -29 11 3 20 9 20 13 0 4 9 10 20 13 32
8 21 52 -13 52 -15 1 -27 -1 -27 -2z"/>
<path d="M11583 1625 c-6 -18 25 -58 38 -49 11 7 12 44 1 44 -4 0 -14 -6 -21
-12 -11 -11 -13 -9 -8 10 6 25 -1 30 -10 7z"/>
<path d="M12117 1613 c-4 -3 -7 -13 -7 -22 0 -9 -6 -28 -14 -43 -11 -20 -11
-25 -2 -22 7 3 17 25 23 49 11 47 11 49 0 38z"/>
<path d="M11830 1554 c0 -2 15 -11 33 -20 27 -14 30 -15 19 -2 -11 14 -52 31
-52 22z"/>
<path d="M11931 1547 c-15 -19 13 -43 61 -52 20 -4 39 -14 42 -22 3 -8 10 -11
16 -8 5 3 10 -1 10 -9 0 -12 -10 -16 -40 -16 -33 0 -40 3 -40 19 0 23 -22 40
-28 23 -2 -7 -13 -1 -25 14 l-22 25 -1 -25 c-1 -15 2 -23 8 -20 6 4 14 1 18
-7 7 -10 11 -10 24 0 14 12 16 10 16 -7 0 -26 12 -33 58 -37 45 -3 69 -9 78
-18 4 -4 15 -7 25 -7 9 0 19 -7 23 -15 3 -8 11 -12 19 -10 7 3 26 -8 42 -25
16 -16 35 -30 42 -30 7 0 13 -4 13 -10 0 -5 -8 -10 -19 -10 -27 0 -43 -24 -36
-53 4 -16 2 -26 -7 -29 -14 -5 -60 16 -58 26 6 20 -10 48 -24 43 -8 -3 -18 -2
-21 3 -12 19 -56 10 -80 -16 -25 -27 -66 -30 -71 -6 -1 7 0 8 3 2 2 -5 9 -8
14 -4 13 7 1 24 -17 24 -8 0 -14 -6 -14 -14 0 -8 -9 -18 -20 -21 -22 -7 -48
-45 -30 -45 5 0 10 6 10 14 0 19 32 26 75 16 30 -7 37 -5 47 14 6 11 16 24 22
28 17 12 56 9 56 -3 0 -6 9 -8 20 -4 11 4 20 3 19 -2 -5 -27 4 -44 29 -56 15
-8 32 -12 39 -10 15 5 19 -3 27 -53 7 -37 5 -41 -21 -54 -15 -8 -29 -15 -30
-15 -1 0 2 -17 6 -38 9 -39 6 -43 -19 -27 -32 20 -55 -74 -25 -104 18 -18 19
-22 3 -24 -7 0 -31 -4 -54 -8 -36 -6 -43 -3 -65 24 -30 35 -65 56 -80 46 -6
-3 -16 2 -24 12 -11 15 -15 16 -29 5 -27 -22 -124 15 -113 43 3 7 -11 23 -30
36 -26 17 -31 26 -20 30 22 8 67 65 67 85 0 14 3 15 15 5 12 -10 20 -8 41 9
18 14 22 21 11 21 -8 0 -18 -7 -21 -16 -6 -15 -8 -15 -31 0 -24 16 -25 15 -25
-4 0 -37 -42 -87 -83 -100 -23 -7 -42 -20 -47 -33 -7 -18 -9 -19 -9 -4 -1 10
-5 16 -10 13 -16 -10 -59 34 -66 67 -4 17 -12 35 -17 38 -5 3 8 23 29 43 28
26 33 36 21 36 -10 0 -18 6 -18 13 0 6 -5 4 -11 -6 -5 -9 -7 -21 -4 -27 8 -13
-31 -50 -53 -50 -10 0 -22 -3 -25 -7 -13 -12 -57 -9 -57 4 0 7 -11 13 -26 13
-14 0 -23 -4 -19 -10 3 -5 12 -7 20 -3 9 3 15 -1 15 -10 0 -15 45 -17 69 -3
16 10 64 -2 56 -14 -3 -5 -1 -11 4 -14 5 -3 12 -23 16 -43 4 -21 10 -32 12
-25 3 8 14 4 36 -14 l31 -26 19 26 c18 26 47 35 47 16 0 -5 5 -10 11 -10 13 0
39 -25 39 -38 0 -5 9 -17 21 -27 l20 -19 -33 -17 c-18 -10 -47 -24 -64 -32
-17 -8 -39 -25 -50 -38 -10 -13 -31 -32 -46 -42 -16 -10 -28 -26 -28 -38 0
-11 -8 -23 -17 -26 -10 -4 -24 -15 -31 -25 -7 -10 -22 -18 -32 -18 -10 0 -22
-5 -25 -11 -4 -6 -13 -8 -21 -5 -8 3 -14 1 -14 -4 0 -6 9 -10 20 -10 17 0 19
-5 14 -32 -4 -18 -15 -39 -25 -47 -11 -7 -19 -19 -19 -27 0 -7 -6 -11 -14 -8
-8 3 -16 -4 -20 -20 -7 -29 -21 -34 -30 -11 -7 18 -33 10 -62 -21 -14 -14 -29
-21 -41 -18 -11 3 -25 -1 -32 -9 -8 -11 -20 -13 -39 -8 -21 6 -27 14 -27 34 1
29 -14 34 -44 15 -39 -24 -83 42 -50 76 5 5 14 4 23 -3 11 -10 17 -8 30 11 9
12 16 30 16 40 0 10 18 35 40 55 22 21 40 46 40 55 0 9 5 20 11 24 7 4 9 22 4
50 -6 40 -4 44 15 44 12 0 31 -5 42 -11 14 -8 23 -8 31 0 15 15 27 14 27 -3 0
-8 11 -27 25 -42 14 -15 25 -38 25 -50 0 -13 4 -24 8 -24 5 0 14 -10 21 -22
11 -23 11 -23 5 2 -4 14 -11 27 -15 28 -5 2 -9 12 -9 22 0 10 -11 32 -25 48
-25 30 -33 62 -16 62 5 0 11 9 14 21 3 11 15 23 26 26 13 3 20 12 18 25 -2 21
0 23 91 48 24 6 42 13 40 16 -3 2 -18 0 -34 -5 -16 -5 -48 -14 -71 -20 -32 -9
-43 -17 -43 -31 0 -11 -7 -20 -16 -20 -8 0 -13 -3 -10 -8 6 -10 -14 -34 -45
-54 -20 -13 -34 -15 -55 -8 -16 5 -40 12 -54 15 -41 8 -48 18 -54 72 -5 39 -3
52 8 56 17 7 10 43 -10 51 -11 4 -11 1 1 -18 14 -21 14 -24 1 -29 -11 -5 -14
-21 -11 -76 4 -65 3 -70 -13 -62 -16 9 -47 21 -64 26 -5 2 -11 4 -15 5 -20 6
-79 -3 -84 -12 -4 -7 -15 -8 -25 -3 -11 5 -23 7 -28 6 -13 -3 -96 33 -96 41 0
4 6 11 13 15 8 4 24 27 37 50 l23 42 -24 21 c-15 13 -34 19 -52 17 -22 -3 -31
1 -37 17 -7 16 -9 17 -9 4 -1 -22 18 -33 49 -30 16 2 33 -5 44 -17 17 -18 17
-21 0 -48 -24 -38 -81 -93 -97 -93 -18 0 -54 -40 -59 -65 -2 -12 -13 -21 -26
-23 -26 -4 -27 -6 -6 -37 17 -27 27 -164 13 -187 -4 -6 -3 -20 2 -30 11 -20 0
-36 -39 -57 -13 -7 -21 -20 -21 -34 l2 -22 4 22 c5 26 2 25 106 31 20 1 31 9
34 22 3 11 10 20 15 20 5 0 26 11 46 25 l36 25 38 -40 c40 -41 62 -49 72 -27
5 10 7 10 12 0 3 -7 14 -13 24 -13 9 0 23 -7 30 -15 15 -18 51 -20 68 -3 9 9
12 7 13 -12 2 -32 0 -57 -7 -97 -3 -18 -1 -33 4 -33 6 0 10 6 9 13 0 6 1 27 1
46 2 31 4 33 31 28 17 -4 36 0 49 9 16 11 21 11 25 1 3 -8 16 -1 39 21 34 32
58 41 58 22 0 -13 51 -13 70 1 12 8 10 9 -7 4 -29 -8 -30 10 -3 25 11 6 20 17
20 25 0 8 9 15 20 15 11 0 19 3 18 8 -5 18 13 72 25 72 7 0 18 13 24 30 6 17
23 34 37 40 16 6 26 17 26 29 0 11 7 26 16 33 9 7 31 28 50 46 19 17 41 32 49
32 7 0 17 5 20 10 13 21 90 51 117 45 15 -4 36 -2 46 4 16 8 21 7 26 -5 4 -10
13 -14 22 -10 20 8 54 -11 54 -29 0 -8 7 -15 15 -15 9 0 18 -7 22 -16 4 -12
19 -15 67 -12 68 3 87 21 53 48 -16 13 -19 23 -13 53 4 20 11 37 16 37 6 0 10
-4 10 -9 0 -5 9 -7 20 -4 19 5 20 18 5 69 -1 5 10 16 25 22 31 14 45 39 31 56
-4 6 -12 28 -15 49 l-7 39 33 -7 c18 -4 37 -11 43 -16 5 -5 16 -9 25 -9 15 0
-17 17 -78 40 -40 15 -40 44 1 48 30 4 37 29 10 39 -10 3 -32 19 -50 36 -17
16 -36 27 -41 23 -5 -3 -12 1 -16 9 -3 8 -14 15 -25 15 -11 0 -23 5 -26 10 -3
6 -14 10 -24 10 -14 0 -17 6 -13 25 2 15 0 25 -7 25 -7 0 -9 5 -5 12 4 7 3 8
-5 4 -13 -9 -45 20 -36 33 6 11 -33 26 -42 17 -4 -3 1 -6 9 -6 9 0 18 -9 21
-20 4 -17 1 -19 -21 -14 -15 4 -33 12 -40 17 -11 9 -11 13 4 24 10 7 13 13 7
13 -6 0 -16 -6 -22 -13z m-411 -837 c0 -5 -5 -10 -11 -10 -5 0 -7 5 -4 10 3 6
8 10 11 10 2 0 4 -4 4 -10z"/>
<path d="M11497 1523 c-10 -9 -8 -76 2 -92 6 -10 8 0 4 27 -4 27 -1 47 7 57
12 14 0 22 -13 8z"/>
<path d="M12080 1500 c-13 -8 -12 -10 3 -10 9 0 17 5 17 10 0 12 -1 12 -20 0z"/>
<path d="M11880 1485 c0 -8 2 -15 4 -15 2 0 6 7 10 15 3 8 1 15 -4 15 -6 0
-10 -7 -10 -15z"/>
<path d="M11852 1470 c-7 -11 -8 -20 -3 -20 9 0 24 30 18 36 -1 2 -8 -6 -15
-16z"/>
<path d="M11855 1412 c0 -15 -2 -44 -6 -64 -4 -25 -2 -44 7 -57 14 -20 54 -35
54 -20 0 5 -7 9 -16 9 -31 0 -41 28 -31 87 6 33 6 58 0 64 -5 5 -9 -2 -8 -19z"/>
<path d="M11301 1413 c0 -13 -6 -23 -12 -23 -6 0 -8 -7 -5 -16 4 -11 0 -15
-17 -14 -31 3 -67 -10 -67 -24 0 -6 -5 -4 -10 4 -9 13 -11 13 -20 0 -15 -24
26 -25 51 -1 19 17 23 18 36 6 8 -8 13 -22 11 -32 -2 -11 4 -18 17 -20 11 -1
14 0 8 3 -17 8 -16 34 3 72 8 18 13 40 11 50 -4 13 -5 11 -6 -5z"/>
<path d="M11486 1385 c4 -8 8 -15 10 -15 2 0 4 7 4 15 0 8 -4 15 -10 15 -5 0
-7 -7 -4 -15z"/>
<path d="M10887 1309 c7 -7 15 -10 18 -7 3 3 -2 9 -12 12 -14 6 -15 5 -6 -5z"/>
<path d="M10967 1297 c28 -8 65 -13 82 -12 18 1 32 -4 36 -13 3 -8 12 -12 20
-9 8 4 16 -2 20 -14 7 -20 25 -27 25 -8 0 6 6 9 13 7 14 -5 19 -88 4 -88 -6 0
-8 -2 -5 -5 3 -3 11 -3 19 0 17 6 17 87 0 93 -6 2 -12 18 -12 35 -2 31 -2 31
-6 5 -4 -29 -17 -36 -28 -17 -4 6 -13 8 -20 5 -7 -2 -18 1 -24 7 -6 6 -28 12
-49 13 -20 1 -57 4 -82 8 -45 6 -45 6 7 -7z"/>
<path d="M11545 1300 c-9 -15 4 -30 23 -29 16 1 16 2 0 6 -10 2 -15 10 -11 19
6 16 -3 19 -12 4z"/>
<path d="M11289 1250 c-13 -35 -10 -45 13 -44 10 1 20 -7 23 -17 7 -20 35 -27
35 -9 0 6 8 10 18 11 11 0 12 2 4 6 -7 3 -19 0 -27 -7 -11 -9 -16 -7 -25 10
-6 11 -15 18 -20 15 -15 -9 -21 12 -10 39 5 14 7 26 4 26 -3 0 -10 -13 -15
-30z"/>
<path d="M11160 1131 c0 -5 5 -13 10 -16 6 -3 10 -2 10 4 0 5 -4 13 -10 16 -5
3 -10 2 -10 -4z"/>
<path d="M12260 858 c25 -24 47 -43 49 -41 6 4 -50 61 -74 75 -11 6 0 -9 25
-34z"/>
<path d="M11751 864 c0 -11 3 -14 6 -6 3 7 2 16 -1 19 -3 4 -6 -2 -5 -13z"/>
<path d="M11741 809 c-14 -40 -5 -78 25 -107 13 -13 24 -27 24 -32 0 -6 5 -10
10 -10 6 0 5 9 -2 22 -17 30 -35 48 -40 42 -11 -10 -17 58 -7 82 5 15 8 29 5
31 -2 2 -9 -10 -15 -28z"/>
<path d="M12312 778 c7 -15 15 -23 17 -17 2 6 -4 18 -13 27 -15 15 -15 15 -4
-10z"/>
<path d="M12321 714 c0 -11 3 -14 6 -6 3 7 2 16 -1 19 -3 4 -6 -2 -5 -13z"/>
<path d="M12310 680 c-9 -6 -10 -10 -3 -10 6 0 15 5 18 10 8 12 4 12 -15 0z"/>
<path d="M11820 635 c0 -8 4 -15 10 -15 5 0 7 7 4 15 -4 8 -8 15 -10 15 -2 0
-4 -7 -4 -15z"/>
<path d="M11826 584 c-3 -9 -6 -23 -6 -31 0 -13 3 -13 15 -3 13 11 15 8 15
-19 0 -17 0 -34 0 -38 0 -5 -18 -8 -39 -8 -22 0 -42 -3 -45 -6 -8 -8 77 -5 90
3 15 10 2 84 -15 80 -8 -2 -10 4 -6 18 7 24 0 27 -9 4z"/>
<path d="M11454 568 c-4 -7 -3 -8 4 -4 7 4 12 1 12 -8 0 -18 25 -22 35 -5 4 6
14 8 24 4 13 -5 14 -4 4 6 -10 10 -16 10 -25 1 -16 -16 -28 -15 -28 3 0 18
-16 20 -26 3z"/>
<path d="M11566 545 c10 -8 23 -15 28 -15 6 0 1 7 -10 15 -10 8 -23 15 -28 15
-6 0 -1 -7 10 -15z"/>
<path d="M11678 503 c7 -5 11 -19 9 -31 -3 -24 -17 -42 -17 -23 0 8 -8 6 -25
-5 -14 -9 -25 -21 -24 -28 0 -7 2 -6 6 2 2 6 9 12 14 12 6 0 7 -5 4 -10 -3 -6
10 0 30 11 20 12 33 25 28 28 -4 3 -8 15 -8 25 0 11 -7 21 -15 23 -11 4 -12 2
-2 -4z"/>
<path d="M11725 470 c-3 -6 1 -7 9 -4 18 7 21 14 7 14 -6 0 -13 -4 -16 -10z"/>
<path d="M11094 8270 c-6 -6 -25 -12 -42 -13 -49 -3 -38 -15 12 -13 24 0 42 5
39 10 -3 4 1 12 8 17 8 5 9 9 4 9 -6 0 -16 -5 -21 -10z"/>
<path d="M11170 8270 c-30 -7 -29 -7 13 -4 26 2 47 -1 47 -6 0 -6 9 -10 19
-10 27 0 108 -56 114 -78 4 -16 5 -16 6 0 0 10 -5 22 -11 28 -30 25 -90 60
-103 60 -8 0 -17 5 -20 10 -7 11 -13 11 -65 0z"/>
<path d="M11376 8102 c8 -26 24 -56 36 -67 l21 -20 -20 27 c-12 15 -24 43 -27
63 -4 19 -11 37 -15 40 -5 3 -3 -16 5 -43z"/>
<path d="M11456 7991 c-16 -15 -30 -21 -41 -17 -15 5 -15 9 -4 24 13 15 12 16
-4 3 -13 -10 -15 -17 -6 -27 15 -19 29 -18 53 5 29 26 81 34 96 16 7 -8 17
-15 23 -15 6 0 0 8 -13 17 -35 25 -76 22 -104 -6z"/>
<path d="M11604 7998 l-19 -23 21 18 c27 22 39 22 64 -3 11 -11 26 -20 33 -20
6 1 1 7 -13 15 -14 7 -24 17 -22 22 7 20 -45 13 -64 -9z"/>
<path d="M11730 7962 c13 -6 62 -39 157 -105 17 -12 34 -29 36 -37 4 -12 5
-11 6 2 0 10 -9 23 -21 29 -13 7 -43 29 -67 51 -24 21 -49 38 -56 38 -7 0 -18
7 -25 15 -7 8 -20 15 -29 14 -14 0 -14 -1 -1 -7z"/>
<path d="M11930 7797 c0 -3 11 -18 25 -33 14 -15 25 -23 25 -18 0 10 -50 60
-50 51z"/>
</g>
</svg>
